<svg width="98" height="46" viewBox="0 0 98 46" fill="none" xmlns="http://www.w3.org/2000/svg">
<path d="M6.04576 6.4531V1.08926H16.7735V6.4531H6.04576ZM0.681921 22.5446V6.4531H6.04576V22.5446H0.681921ZM16.7735 22.5446V6.4531H22.1373V22.5446H16.7735ZM6.04576 27.9085V22.5446H16.7735V27.9085H6.04576ZM0.681921 44V27.9085H6.04576V44H0.681921ZM16.7735 44V27.9085H22.1373V44H16.7735ZM49.2247 45.0728C36.6733 45.0728 26.6966 35.096 26.6966 22.5446C26.6966 10.3151 36.6733 0.0164864 49.2247 0.0164864C61.7761 0.0164864 71.7528 10.3151 71.7528 22.5446C71.7528 35.096 61.7761 45.0728 49.2247 45.0728ZM76.3205 22.5446V1.08926H81.6843V22.5446H76.3205ZM92.412 22.5446V1.08926H97.7759V22.5446H92.412ZM81.6843 27.9085V22.5446H92.412V27.9085H81.6843ZM92.412 38.6362V27.9085H97.7759V38.6362H92.412ZM76.3205 44V38.6362H92.412V44H76.3205Z" fill="#00A8CE"/>
</svg>
