<svg version="1.1" id="Layer_1" xmlns="http://www.w3.org/2000/svg" xmlns:xlink="http://www.w3.org/1999/xlink" x="0px" y="0px"
	 width="100%" viewBox="0 0 1024 1024" enable-background="new 0 0 1024 1024" xml:space="preserve">
<path fill="#00000000" opacity="1.000000" stroke="none" 
	d="
M577.000000,1025.000000 
	C384.666656,1025.000000 192.833328,1025.000000 1.000000,1025.000000 
	C1.000000,683.666687 1.000000,342.333344 1.000000,1.000000 
	C342.333344,1.000000 683.666687,1.000000 1025.000000,1.000000 
	C1025.000000,342.333344 1025.000000,683.666687 1025.000000,1025.000000 
	C875.833313,1025.000000 726.666687,1025.000000 577.000000,1025.000000 
M416.998566,487.992767 
	C418.337280,485.664124 419.675995,483.335480 420.998291,481.000702 
	C420.998291,481.000702 421.008636,481.016693 421.550049,480.627533 
	C435.621307,459.878784 450.192902,439.537262 468.865417,422.319611 
	C469.089447,424.482452 468.769501,426.364502 468.270599,428.197845 
	C465.037720,440.077911 461.309875,451.844299 458.598022,463.840942 
	C452.164764,492.300140 449.424744,521.063904 454.067932,550.107971 
	C456.472321,565.147888 460.686005,579.643066 469.676239,592.023376 
	C469.676239,592.023376 469.592194,592.327454 469.757324,592.997009 
	C474.343079,598.822876 478.928833,604.648743 483.628784,610.619629 
	C459.000244,617.447998 445.332184,636.504395 433.003174,656.997131 
	C433.003174,656.997131 432.983673,656.972778 432.442993,657.371094 
	C429.885803,662.555664 427.328613,667.740234 424.881104,672.922302 
	C424.881104,672.922302 424.854248,672.815918 424.316193,673.262573 
	C422.389801,678.384583 420.194183,683.423340 418.580719,688.642090 
	C408.148254,722.385986 413.291504,753.864685 432.702057,783.626526 
	C432.799896,783.905212 432.971832,784.126221 433.457794,784.984619 
	C442.220398,796.625488 450.983032,808.266357 460.002441,820.248352 
	C457.709167,820.248352 455.572205,820.059265 453.478424,820.279846 
	C441.992371,821.489868 430.516937,822.800232 418.316925,824.044861 
	C417.876465,824.219055 417.435974,824.393250 416.272125,824.568237 
	C411.530640,826.840637 406.519928,828.713379 402.205261,831.619507 
	C400.841553,832.538025 400.278229,836.911865 401.278534,838.445435 
	C402.310364,840.027344 405.656586,840.454834 408.057526,840.684692 
	C410.289886,840.898499 412.603180,840.099670 414.894196,839.897400 
	C424.505646,839.048706 434.265045,839.016174 443.698364,837.240295 
	C454.082153,835.285339 464.193390,831.834106 474.370270,828.853394 
	C478.153259,827.745422 480.007050,823.617126 478.108490,820.013245 
	C475.950226,815.916443 473.266907,812.066101 470.544281,808.302063 
	C461.860565,796.296814 452.583649,784.692810 444.394135,772.363708 
	C429.111816,749.356628 424.296234,724.028259 432.222778,697.452454 
	C436.370605,683.545837 443.255615,670.455627 449.139221,656.836548 
	C449.139221,656.836548 449.132477,656.552429 449.689026,656.107910 
	C453.435120,650.602600 456.957001,644.927185 460.977356,639.630005 
	C467.811157,630.626099 474.584900,621.523987 484.634369,615.610596 
	C487.341278,614.017822 489.241302,614.476135 491.855560,615.960632 
	C498.757355,619.880005 505.933990,623.315369 513.392395,627.265564 
	C513.708679,627.230164 514.024902,627.194824 514.869690,627.730347 
	C529.271118,632.868530 543.947327,634.177185 559.653931,630.970764 
	C560.099976,630.843384 560.545959,630.716003 561.746399,630.544128 
	C564.266724,629.889709 566.786987,629.235229 569.104004,628.633545 
	C570.741577,632.236084 572.268311,635.361328 573.598145,638.568176 
	C576.452148,645.450256 579.830139,652.194580 581.878906,659.315979 
	C587.575500,679.117065 592.702454,699.082031 597.975220,719.672668 
	C598.088074,720.116150 598.200867,720.559692 598.274780,721.826050 
	C604.119324,755.377808 605.825684,789.294128 606.759949,823.244141 
	C606.912048,828.770569 608.525146,831.147766 613.464050,833.448486 
	C632.020508,842.092529 651.640137,843.247742 671.547180,842.848328 
	C676.406860,842.750793 679.790955,839.216370 679.848511,835.129517 
	C679.904175,831.174683 676.448181,828.413879 671.145813,828.013550 
	C668.001221,827.776123 664.834717,827.532776 661.744324,826.944214 
	C657.351746,826.107727 653.067932,824.483582 648.652161,824.031128 
	C640.053467,823.150208 631.401123,822.684082 622.759216,822.386780 
	C619.167603,822.263306 618.374634,820.799500 618.410400,817.515137 
	C618.548035,804.868042 618.765442,792.208008 618.363220,779.571533 
	C617.199280,742.998047 612.713745,706.905457 601.121399,672.005432 
	C595.602661,655.390503 589.520630,638.990967 577.221802,625.339233 
	C582.880371,621.022705 589.218445,617.353760 594.067749,612.265869 
	C607.537842,598.133118 613.457947,580.236023 617.026062,561.528931 
	C623.582214,527.156555 621.349548,492.847198 615.497986,458.641968 
	C613.937317,449.519318 611.869812,440.483337 609.857422,430.529297 
	C611.228455,431.745728 612.037781,432.288269 612.624695,433.011383 
	C619.130859,441.028229 625.852295,448.885834 632.042114,457.141418 
	C666.489014,503.084595 691.365662,554.575378 717.219055,605.716248 
	C715.105469,608.722351 713.373657,613.580627 710.013000,615.356628 
	C705.846008,617.558777 704.271667,620.607666 703.013245,624.327881 
	C699.820923,633.765259 699.676697,643.287109 702.806335,652.794678 
	C707.588928,667.323792 721.477173,675.368774 735.297668,671.636108 
	C748.469299,668.078735 756.521301,653.738159 753.529968,639.169128 
	C753.176392,637.447266 752.838135,635.722168 752.492798,633.998596 
	C752.857971,633.788147 753.223206,633.577698 753.588379,633.367249 
	C755.227478,635.321045 757.302246,637.054260 758.424194,639.269897 
	C761.797363,645.931763 764.848389,652.759399 767.924561,659.567749 
	C769.410339,662.856140 771.707336,664.575806 775.380249,664.050964 
	C779.179504,663.507935 781.700745,661.117188 781.765686,657.485107 
	C781.832275,653.757568 781.456726,649.696411 780.013367,646.320496 
	C770.592651,624.284668 754.485229,609.659485 730.989929,603.849915 
	C727.627991,603.018616 726.676392,601.400940 725.854126,598.315247 
	C723.547302,589.658813 721.566040,580.756287 717.916077,572.643860 
	C698.574951,529.657043 674.800964,489.197632 646.621094,451.398804 
	C632.602600,432.595154 617.060486,415.260681 595.958801,403.934784 
	C595.451050,403.662231 595.139709,403.023804 594.604065,402.402039 
	C595.720276,401.814850 596.562500,401.280579 597.470886,400.907288 
	C615.500793,393.498260 630.328003,381.779846 641.860291,366.261963 
	C671.431641,326.470795 678.495728,283.388794 656.830139,237.978088 
	C633.207886,188.466217 575.667175,164.026306 521.730591,179.028839 
	C460.501953,196.059662 422.492859,256.323273 434.214172,318.501556 
	C436.172607,328.890625 440.140900,338.900757 442.535492,349.483948 
	C439.868530,345.344147 436.565918,345.415863 432.537384,347.568665 
	C429.472107,349.206665 426.071716,350.209930 422.847809,351.560883 
	C419.612518,352.916656 416.411102,354.353210 412.645416,355.993713 
	C425.459869,364.658203 428.399536,378.704529 435.956543,390.195435 
	C443.316132,386.799561 450.512329,383.479034 457.708557,380.158539 
	C457.623260,379.658356 457.537933,379.158173 457.452606,378.657990 
	C455.928619,378.398682 454.313293,378.374817 452.901123,377.827148 
	C450.548187,376.914642 447.569855,376.243042 446.198090,374.445160 
	C442.887390,370.106079 440.175720,365.267578 437.632843,360.415375 
	C437.012482,359.231720 437.556824,356.990662 438.299255,355.638580 
	C439.599792,353.270111 441.467926,351.213348 443.699219,349.350159 
	C449.798889,360.743164 457.285797,371.133728 466.843903,379.850952 
	C499.355347,409.502258 536.853699,419.481750 579.629944,407.886780 
	C585.512512,406.292206 588.016907,407.073669 590.523926,412.685516 
	C591.670288,415.251587 592.674255,417.977234 593.147827,420.732758 
	C596.781860,441.878052 601.010864,462.957520 603.622070,484.233307 
	C607.192261,513.322571 606.612366,542.405029 599.012939,571.009521 
	C592.774963,594.489868 580.190430,612.005005 554.565308,615.926819 
	C531.832275,619.406128 511.579102,613.050659 494.652527,597.431458 
	C476.871918,581.024109 469.813080,559.682739 467.925873,536.231934 
	C465.917847,511.279999 469.060638,486.699921 473.457855,462.218170 
	C475.985443,448.145691 478.476746,434.066681 481.355682,419.398285 
	C484.297150,413.241180 487.238617,407.084076 490.833191,399.559845 
	C487.253937,399.771667 485.132629,399.897186 482.423645,400.081360 
	C481.961060,400.428864 481.498474,400.776367 480.352661,401.260376 
	C472.538849,406.487915 464.725067,411.715454 456.982208,416.984985 
	C456.982208,416.984985 456.946106,416.910889 456.301636,417.112122 
	C438.439758,432.744110 423.162994,450.547333 410.819397,471.146057 
	C410.819397,471.146057 410.845215,471.410004 410.262939,471.819794 
	C400.756104,487.916901 391.249298,504.014008 381.066406,521.255798 
	C380.365723,518.987122 380.122314,518.398865 380.003784,517.786377 
	C374.976044,491.814514 369.253540,466.036407 359.087860,441.467499 
	C358.669708,440.456848 359.010986,439.132019 359.788513,437.582672 
	C360.771423,437.754852 361.753479,437.932098 362.737366,438.098480 
	C382.214478,441.392334 400.923035,427.151550 403.205170,407.495178 
	C403.362762,406.137970 404.930328,404.628571 406.227142,403.774323 
	C411.752319,400.134674 417.625122,396.995422 422.976074,393.127167 
	C427.332092,389.978180 423.201691,386.997650 421.893066,384.113922 
	C420.425934,380.880951 418.178558,381.611816 415.740479,383.037079 
	C410.572998,386.057922 405.430725,389.146545 400.084656,391.820648 
	C398.687622,392.519409 396.158142,392.447845 394.873901,391.613708 
	C389.934692,388.405426 387.262726,388.098358 384.874176,391.236053 
	C381.763214,395.322723 382.141663,400.643066 386.312592,403.503387 
	C390.593353,406.438995 389.341675,409.752258 387.536072,413.034607 
	C382.900909,421.460938 374.429626,423.510406 365.986237,425.461243 
	C365.812988,425.501312 365.458801,424.758209 365.189240,424.380798 
	C379.843018,413.765137 380.415161,412.940857 376.951508,407.083313 
	C373.676483,408.561737 370.228302,409.805115 367.085938,411.587646 
	C346.577026,423.221222 326.134399,434.971680 305.785980,446.726562 
	C305.785980,446.726562 305.793579,446.603333 305.082764,446.748627 
	C302.185547,448.385498 299.251221,449.960602 296.399750,451.673553 
	C291.976868,454.330383 287.527344,456.957367 283.245056,459.829498 
	C279.495270,462.344482 280.346985,465.984039 282.014099,469.165863 
	C282.483521,470.061737 285.337067,470.709412 286.386810,470.146454 
	C297.788116,464.032043 309.047882,457.653748 320.236908,451.305267 
	C320.236908,451.305267 320.233856,451.422394 320.945099,451.269684 
	C329.802429,446.174011 338.659729,441.078339 347.247772,436.137604 
	C349.855530,448.805817 352.088806,461.365631 355.067780,473.746033 
	C360.196136,495.059540 365.715485,516.280334 371.227661,537.499329 
	C373.087158,544.657471 378.223358,546.132507 383.340332,540.761230 
	C386.843658,537.083801 389.437256,532.539856 392.449371,528.282471 
	C392.449371,528.282471 392.382416,528.358704 392.907013,527.971069 
	C400.773987,514.828918 408.640961,501.686798 416.544373,488.466339 
	C416.544373,488.466339 416.503937,488.389984 416.998566,487.992767 
M312.038086,411.592712 
	C294.701813,419.829041 278.962616,430.441803 264.297638,442.848969 
	C270.012482,448.988953 274.964691,449.594391 280.970398,445.399628 
	C282.742706,444.161774 284.576569,443.005829 286.428345,441.888916 
	C305.524109,430.371552 324.645691,418.896851 343.716553,407.338409 
	C347.048828,405.318787 350.178894,402.965393 353.410736,400.760437 
	C350.238251,396.408508 347.056488,392.894226 344.962830,388.820709 
	C343.881409,386.716644 344.732483,383.619385 344.710419,380.970856 
	C347.177277,381.092316 349.693512,380.962128 352.091858,381.432739 
	C353.457062,381.700623 354.678070,382.884277 355.880829,383.768707 
	C361.692841,388.042572 364.194855,394.379944 366.583557,400.833923 
	C368.091644,404.908569 370.775208,405.381134 373.300354,401.871552 
	C374.463593,400.254700 375.450836,397.732758 375.068085,395.928772 
	C373.944366,390.632263 372.087860,385.491730 370.531830,380.286072 
	C370.052124,378.681335 369.615875,377.063629 369.159729,375.451843 
	C371.322144,375.276123 374.100922,374.166229 375.526642,375.106995 
	C379.200317,377.531067 382.171844,380.991760 385.639984,383.768280 
	C387.042938,384.891479 389.143158,386.067200 390.670593,385.793518 
	C391.725922,385.604401 392.802643,383.048523 393.077057,381.416992 
	C394.277039,374.282196 389.183075,366.532776 381.547241,363.438538 
	C373.510101,360.181702 364.828949,362.252380 360.308685,368.166901 
	C359.502747,369.221405 357.475647,369.761322 356.005035,369.775604 
	C354.420563,369.790955 352.852478,368.795135 351.233704,368.437927 
	C344.296600,366.907135 335.526276,370.292236 331.758789,375.882629 
	C328.052338,381.382355 328.179047,388.942261 332.202545,394.671570 
	C333.275482,396.199432 334.677124,397.496399 336.155945,399.155212 
	C328.050781,403.330231 320.373016,407.285095 312.038086,411.592712 
M223.075684,466.890198 
	C222.246826,484.040680 231.982300,500.588562 246.657562,506.973663 
	C260.075348,512.811646 272.305054,506.192657 274.274353,491.730286 
	C276.336456,476.586304 269.421356,464.627350 259.852142,453.865051 
	C251.922424,444.946655 243.066681,443.923920 233.117462,450.523987 
	C227.557724,454.212128 224.293091,459.442627 223.075684,466.890198 
M692.932739,731.591675 
	C689.850647,727.342590 685.306824,726.623596 680.535767,726.470276 
	C671.875427,726.191895 665.617859,732.593567 664.957336,742.395447 
	C664.329590,751.709839 670.292969,759.343506 678.763428,760.028442 
	C685.105896,760.541382 690.353577,758.402161 693.650330,752.882385 
	C697.740112,746.034851 697.783630,739.018188 692.932739,731.591675 
M373.384369,769.654053 
	C374.930786,759.684753 371.210510,752.268677 363.474121,749.899170 
	C354.829590,747.251465 344.841309,752.561646 341.955872,761.339172 
	C339.162231,769.837585 343.379913,778.346313 351.886841,781.373657 
	C360.975098,784.607910 369.418488,780.273560 373.384369,769.654053 
M682.918396,255.518051 
	C683.831482,257.446289 684.468750,259.576660 685.707275,261.266388 
	C690.126648,267.296143 698.461975,269.280945 705.343323,266.169250 
	C712.142700,263.094604 716.006470,255.603638 714.662659,248.100784 
	C713.271423,240.332474 707.940430,235.695587 699.860107,235.225403 
	C688.352112,234.555771 681.393616,242.495422 682.918396,255.518051 
M402.545380,190.764343 
	C404.504639,193.984161 405.909210,197.777756 408.530945,200.312347 
	C415.403839,206.956848 425.305054,206.583893 430.627838,200.070724 
	C435.261902,194.400330 435.382263,187.287415 430.956573,180.640335 
	C426.378204,173.763931 419.241516,170.794052 412.568115,172.988113 
	C405.819427,175.206940 402.112640,181.357468 402.545380,190.764343 
M296.929077,569.557922 
	C298.091705,568.633972 299.416595,567.853882 300.386749,566.759338 
	C303.404236,563.355042 303.933197,557.579224 301.550171,553.687866 
	C299.105743,549.696167 295.348999,548.333313 290.837494,548.998047 
	C285.978333,549.713989 283.108704,552.765198 282.069153,557.372742 
	C280.241516,565.472900 287.134552,571.474792 296.929077,569.557922 
M370.188049,227.820557 
	C371.637543,222.299637 370.519928,218.835754 366.771393,217.230927 
	C362.176636,215.263824 355.130615,217.577026 352.760345,221.830704 
	C350.287964,226.267609 351.494781,231.272491 355.700714,234.025024 
	C360.125183,236.920563 364.829529,235.574402 368.938202,230.210693 
	C369.337952,229.688828 369.611938,229.070648 370.188049,227.820557 
M704.025208,792.577881 
	C704.887085,793.056946 705.700562,793.678040 706.619019,793.991211 
	C711.217041,795.558594 714.826294,793.877869 717.331543,790.065796 
	C719.780884,786.338867 720.318176,782.186096 717.258850,778.545898 
	C714.252441,774.968689 710.178833,775.381287 706.303955,776.915161 
	C700.103333,779.369751 698.963684,785.871643 704.025208,792.577881 
M729.805237,309.795074 
	C731.927246,315.278717 735.208801,317.408813 739.861816,316.323029 
	C744.218628,315.306366 747.959534,309.751984 747.630188,304.788849 
	C747.373047,300.914307 743.862793,297.657379 739.541260,297.283600 
	C733.867126,296.792908 729.892395,301.542725 729.805237,309.795074 
M299.504517,718.059082 
	C298.182556,718.004395 296.824036,717.726318 295.545349,717.935730 
	C291.249908,718.639221 287.975616,722.920593 287.872375,727.729492 
	C287.774261,732.298645 289.775360,735.437500 294.273132,736.605835 
	C297.845123,737.533813 302.318451,734.846191 303.890656,731.071106 
	C305.768494,726.562012 304.338501,721.674805 299.504517,718.059082 
M636.498657,186.054779 
	C642.375977,189.287277 648.857056,187.010620 648.783447,181.293442 
	C648.750061,178.702652 646.784973,175.071732 644.619263,173.895416 
	C642.735596,172.872269 638.677551,173.816895 636.753845,175.357361 
	C633.482361,177.977112 633.212280,181.880356 636.498657,186.054779 
M399.898407,375.280884 
	C405.342560,372.258118 410.786743,369.235352 417.239380,365.652679 
	C414.629486,363.668762 412.568695,361.086090 411.483215,361.445923 
	C405.509003,363.426178 399.773285,366.125763 392.554871,369.169189 
	C395.633942,372.136169 397.440643,373.877136 399.898407,375.280884 
M778.197205,604.908142 
	C777.846130,606.182373 777.293640,607.438904 777.179871,608.734009 
	C776.751160,613.611633 780.853821,618.779724 785.946350,619.955444 
	C791.017639,621.126282 795.202454,619.046570 796.828003,614.547729 
	C798.685486,609.406921 796.249023,603.217651 791.275452,600.442993 
	C786.472412,597.763367 782.687988,598.897705 778.197205,604.908142 
M458.257935,146.708664 
	C458.116364,147.519638 457.879364,148.327011 457.848572,149.142181 
	C457.637573,154.727448 460.954041,159.219482 465.840729,160.032013 
	C470.315063,160.775970 474.877014,158.177719 476.143341,154.164124 
	C477.607941,149.522171 475.286102,144.347366 470.731415,142.102081 
	C465.916199,139.728363 462.055634,140.979568 458.257935,146.708664 
z"/>
<path fill="#22c55e" opacity="1.000000" stroke="none" 
	d="
M410.845215,471.410004 
	C410.845215,471.410004 410.819397,471.146057 411.272339,471.013428 
	C413.112213,469.531555 414.716736,468.341248 415.841797,466.800781 
	C418.368530,463.341095 420.328674,459.423401 423.112671,456.205292 
	C428.554474,449.915009 434.392670,443.966949 440.084930,437.894226 
	C445.012390,432.637512 450.066284,427.493805 454.834015,422.096741 
	C456.000336,420.776520 456.266235,418.660858 456.946106,416.910889 
	C456.946106,416.910889 456.982208,416.984985 457.318848,416.967041 
	C458.299316,416.810272 459.018982,416.811798 459.575439,416.511200 
	C465.794800,413.151550 472.096313,409.920074 478.113037,406.226257 
	C479.578949,405.326233 480.087250,402.866425 481.035889,401.123840 
	C481.498474,400.776367 481.961060,400.428864 482.934692,400.294922 
	C486.954071,402.022705 486.839661,403.943024 484.805450,406.952850 
	C482.212616,410.789246 479.261719,414.779480 480.984375,419.990601 
	C478.476746,434.066681 475.985443,448.145691 473.457855,462.218170 
	C469.060638,486.699921 465.917847,511.279999 467.925873,536.231934 
	C469.813080,559.682739 476.871918,581.024109 494.652527,597.431458 
	C511.579102,613.050659 531.832275,619.406128 554.565308,615.926819 
	C580.190430,612.005005 592.774963,594.489868 599.012939,571.009521 
	C606.612366,542.405029 607.192261,513.322571 603.622070,484.233307 
	C601.010864,462.957520 596.781860,441.878052 593.147827,420.732758 
	C592.674255,417.977234 591.670288,415.251587 590.523926,412.685516 
	C588.016907,407.073669 585.512512,406.292206 579.629944,407.886780 
	C536.853699,419.481750 499.355347,409.502258 466.843903,379.850952 
	C457.285797,371.133728 449.798889,360.743164 443.416290,349.207184 
	C443.133362,349.064209 443.180450,349.085999 443.180481,349.085999 
	C440.140900,338.900757 436.172607,328.890625 434.214172,318.501556 
	C422.492859,256.323273 460.501953,196.059662 521.730591,179.028839 
	C575.667175,164.026306 633.207886,188.466217 656.830139,237.978088 
	C678.495728,283.388794 671.431641,326.470795 641.860291,366.261963 
	C630.328003,381.779846 615.500793,393.498260 597.470886,400.907288 
	C596.562500,401.280579 595.720276,401.814850 594.604065,402.402039 
	C595.139709,403.023804 595.451050,403.662231 595.958801,403.934784 
	C617.060486,415.260681 632.602600,432.595154 646.621094,451.398804 
	C674.800964,489.197632 698.574951,529.657043 717.916077,572.643860 
	C721.566040,580.756287 723.547302,589.658813 725.854126,598.315247 
	C726.676392,601.400940 727.627991,603.018616 730.989929,603.849915 
	C754.485229,609.659485 770.592651,624.284668 780.013367,646.320496 
	C781.456726,649.696411 781.832275,653.757568 781.765686,657.485107 
	C781.700745,661.117188 779.179504,663.507935 775.380249,664.050964 
	C771.707336,664.575806 769.410339,662.856140 767.924561,659.567749 
	C764.848389,652.759399 761.797363,645.931763 758.424194,639.269897 
	C757.302246,637.054260 755.227478,635.321045 753.588379,633.367249 
	C753.223206,633.577698 752.857971,633.788147 752.492798,633.998596 
	C752.838135,635.722168 753.176392,637.447266 753.529968,639.169128 
	C756.521301,653.738159 748.469299,668.078735 735.297668,671.636108 
	C721.477173,675.368774 707.588928,667.323792 702.806335,652.794678 
	C699.676697,643.287109 699.820923,633.765259 703.013245,624.327881 
	C704.271667,620.607666 705.846008,617.558777 710.013000,615.356628 
	C713.373657,613.580627 715.105469,608.722351 717.219055,605.716248 
	C691.365662,554.575378 666.489014,503.084595 632.042114,457.141418 
	C625.852295,448.885834 619.130859,441.028229 612.624695,433.011383 
	C612.037781,432.288269 611.228455,431.745728 609.857422,430.529297 
	C611.869812,440.483337 613.937317,449.519318 615.497986,458.641968 
	C621.349548,492.847198 623.582214,527.156555 617.026062,561.528931 
	C613.457947,580.236023 607.537842,598.133118 594.067749,612.265869 
	C589.218445,617.353760 582.880371,621.022705 576.874207,625.920959 
	C574.759033,630.520508 572.052734,628.611023 569.653381,627.458069 
	C565.484985,625.454956 563.009277,626.273987 560.992004,630.588562 
	C560.545959,630.716003 560.099976,630.843384 558.967285,630.698547 
	C548.197449,629.951111 538.106506,629.596252 528.034607,628.946777 
	C523.450806,628.651184 518.904480,627.773254 514.341187,627.159485 
	C514.024902,627.194824 513.708679,627.230164 513.130920,626.763062 
	C509.465057,623.789062 506.385681,620.069580 502.594757,619.082275 
	C491.684052,616.240845 485.710175,607.527649 478.234131,600.541931 
	C475.330353,597.828552 472.471497,595.067017 469.592194,592.327454 
	C469.592194,592.327454 469.676239,592.023376 469.788940,591.815857 
	C469.297455,589.471375 468.840393,587.275818 468.023926,585.223267 
	C467.643219,584.266235 466.227264,583.716003 465.860718,582.759094 
	C463.758087,577.269470 462.012848,571.638794 459.805481,566.194214 
	C454.432892,552.942566 454.941284,538.872620 454.145447,525.044800 
	C453.680847,516.972473 454.558197,508.810211 455.040405,500.700836 
	C455.334778,495.749817 455.659851,490.750427 456.615204,485.899567 
	C458.495667,476.351624 460.820038,466.890961 462.969727,457.396240 
	C464.785767,449.375122 465.560486,440.895660 468.798798,433.495453 
	C471.052887,428.344360 471.388763,424.188110 469.748413,418.608276 
	C468.269928,419.744568 467.025421,420.486755 466.045044,421.487732 
	C456.770386,430.957397 446.705872,439.684570 439.416321,450.992249 
	C435.840118,456.539734 431.231293,461.433655 427.790802,467.052551 
	C425.110138,471.430603 420.266663,474.931519 421.008636,481.016693 
	C421.008636,481.016693 420.998291,481.000702 420.655914,481.061340 
	C417.164032,482.559418 415.671112,484.865173 416.503937,488.389984 
	C416.503937,488.389984 416.544373,488.466339 416.135376,488.364410 
	C414.297058,489.090210 411.810608,489.712799 411.603912,490.777802 
	C409.779175,500.179474 402.409973,506.268433 398.171204,514.171814 
	C395.770477,518.648071 394.281830,523.613525 392.382385,528.358704 
	C392.382416,528.358704 392.449371,528.282471 392.055664,528.267090 
	C389.434052,530.679688 387.445374,533.405884 384.904724,535.443970 
	C382.759003,537.165222 380.058807,538.414490 377.404205,539.111633 
	C376.818604,539.265442 375.271454,536.274780 374.386261,534.615173 
	C373.610870,533.161377 373.050964,531.572388 372.555969,529.992920 
	C370.696411,524.059387 368.690338,518.160339 367.130920,512.146790 
	C364.446411,501.794556 362.199799,491.328308 359.484192,480.984802 
	C357.974976,475.236511 355.268402,469.752960 354.208221,463.947998 
	C352.617554,455.238312 351.986877,446.352478 350.972870,437.538696 
	C350.452789,433.017853 348.583466,432.249512 344.786682,434.632202 
	C339.121338,438.187561 333.522400,442.001984 327.445557,444.689331 
	C323.948578,446.235840 321.418213,447.849060 320.233856,451.422394 
	C320.233856,451.422394 320.236908,451.305267 319.870605,451.233948 
	C317.402435,451.837189 315.197205,452.293488 313.219391,453.230042 
	C308.543060,455.444305 303.740265,457.530518 299.443420,460.359314 
	C296.462769,462.321716 294.684692,466.755188 290.727173,463.409821 
	C289.497864,465.053925 288.716766,467.041046 287.366516,467.567017 
	C286.492920,467.907257 283.553589,465.793854 283.673309,465.326935 
	C284.123138,463.572540 285.136810,461.668091 286.519379,460.516205 
	C288.620789,458.765533 291.335541,457.772064 293.557434,456.140533 
	C297.723999,453.081116 301.724213,449.795105 305.793579,446.603333 
	C305.793579,446.603333 305.785980,446.726562 306.150208,446.789368 
	C308.596130,446.132416 310.773590,445.609375 312.740112,444.652740 
	C317.083618,442.539886 321.329193,440.224182 325.595947,437.955963 
	C326.695892,437.371155 327.793793,436.742371 328.773560,435.980652 
	C330.393799,434.721100 331.727814,432.951813 333.514771,432.072937 
	C340.834290,428.472748 348.286621,425.143127 355.663086,421.656860 
	C356.184601,421.410370 356.588470,420.755127 356.877655,420.201477 
	C359.761261,414.679749 364.868347,414.819855 369.999207,414.998779 
	C370.000000,415.000000 370.002441,415.002441 369.858002,415.319580 
	C368.566010,416.938110 367.662537,418.718018 366.225159,419.451141 
	C361.919891,421.646881 361.064819,424.861603 362.403290,428.736572 
	C366.463196,430.580353 370.272552,432.310333 375.347321,434.614960 
	C370.153809,434.614960 366.257019,434.402191 362.403595,434.718475 
	C360.837250,434.847046 359.365326,436.125885 357.595245,437.063141 
	C354.353088,439.675842 356.082672,442.196228 357.236420,444.667389 
	C359.111359,448.683350 361.394165,452.549103 362.860229,456.705658 
	C364.760162,462.092255 366.002472,467.709106 367.576141,473.213074 
	C368.663483,477.016052 370.177765,480.731384 370.898315,484.598206 
	C372.830505,494.967407 374.327820,505.417206 376.220795,515.794312 
	C377.207428,521.202942 381.318726,522.175903 385.698975,518.735107 
	C388.215332,516.758484 389.261749,514.774597 389.991364,511.561432 
	C390.864929,507.714111 393.887299,504.369965 395.896301,500.761841 
	C399.790466,493.767914 403.710419,486.785858 407.443726,479.706085 
	C408.831390,477.074585 409.725861,474.183014 410.845215,471.410004 
M454.188873,307.980835 
	C458.006561,336.985962 472.239014,359.909607 496.581482,375.594604 
	C527.944946,395.803467 561.270752,396.553284 593.939392,379.329956 
	C627.259949,361.762909 645.591675,332.817780 647.710999,295.352356 
	C649.828247,257.923737 633.651184,228.046158 601.533386,209.282700 
	C569.502319,190.569885 535.549500,191.251526 503.549652,210.308441 
	C467.242279,231.930618 451.497894,265.057892 454.188873,307.980835 
M714.712891,623.474487 
	C711.529114,633.608459 711.476562,643.514771 717.632935,652.620544 
	C721.213074,657.915955 727.155579,659.927185 732.411011,658.302490 
	C737.522827,656.722229 740.952515,652.021973 741.224182,645.695557 
	C741.757629,633.273438 735.952332,624.082520 726.210693,616.991211 
	C721.815063,613.791443 719.953064,614.120056 717.017822,618.747314 
	C716.222412,620.001160 715.656433,621.400574 714.712891,623.474487 
M752.765015,632.604065 
	C752.574585,632.530640 752.384155,632.457275 752.193726,632.383850 
	C752.249451,632.580872 752.305176,632.777832 752.765015,632.604065 
z"/>
<path fill="#22c55e" opacity="1.000000" stroke="none" 
	d="
M433.217865,784.289551 
	C432.971832,784.126221 432.799896,783.905212 432.926086,783.198364 
	C433.229004,782.149414 433.576569,781.396729 433.346252,780.927612 
	C430.104889,774.323853 426.291840,767.952393 423.614014,761.133179 
	C420.563385,753.364685 417.540344,745.356567 416.260986,737.177979 
	C414.587708,726.481262 414.880585,715.501099 417.133606,704.778137 
	C418.726959,697.194702 420.714447,689.693787 422.538544,682.159180 
	C423.293518,679.040649 424.081329,675.930115 424.854248,672.815918 
	C424.854248,672.815918 424.881104,672.922302 425.150513,672.789978 
	C429.139008,668.006958 432.921265,663.386780 432.983673,656.972778 
	C432.983673,656.972778 433.003174,656.997131 433.350037,656.978027 
	C434.177856,656.839478 434.889862,656.882935 435.105865,656.576599 
	C440.141266,649.434937 445.833984,642.795593 450.984924,635.737000 
	C453.406830,632.418152 456.889709,629.891724 459.491669,626.681763 
	C463.319061,621.959961 467.824249,618.662537 473.997742,617.996948 
	C474.000000,618.000000 474.006104,618.004639 473.991272,618.374146 
	C473.448334,620.108826 473.223846,621.723328 472.341675,622.797791 
	C467.518982,628.671631 462.100372,634.107056 457.743011,640.296143 
	C454.241089,645.270142 451.956970,651.101501 449.132477,656.552429 
	C449.132477,656.552429 449.139221,656.836548 448.661377,656.932861 
	C446.147156,659.438171 443.626648,661.591492 442.187805,664.315979 
	C440.027618,668.406433 438.381439,672.818115 436.950134,677.233704 
	C433.500885,687.874634 428.862091,698.405945 427.411774,709.340698 
	C425.980774,720.129822 425.495148,731.538940 429.133026,742.336182 
	C431.729980,750.044006 434.160004,757.868652 437.561432,765.226501 
	C440.473511,771.525818 443.093231,778.271179 449.022949,782.731689 
	C449.608276,783.171997 449.680420,784.238037 450.136475,784.915588 
	C453.599701,790.061401 456.966309,795.279724 460.619904,800.288025 
	C465.586578,807.096191 470.970367,813.610596 475.676117,820.587585 
	C476.389862,821.645813 474.762207,826.033386 473.612213,826.303406 
	C467.823242,827.662781 462.009888,828.612000 457.276093,832.652588 
	C456.843384,833.021912 455.999756,832.940247 455.340759,833.009583 
	C439.488586,834.679688 423.621155,836.221680 407.796387,838.119812 
	C405.052582,838.448914 403.966766,836.947693 403.110077,835.378052 
	C402.814636,834.836792 404.508392,832.776062 405.676025,831.950378 
	C409.351532,829.351318 413.208679,827.009094 416.995483,824.567383 
	C417.435974,824.393250 417.876465,824.219055 418.982300,824.291931 
	C421.113800,824.616333 422.651337,825.020996 424.034698,824.718994 
	C434.958344,822.334656 445.924225,822.251587 456.953400,823.756897 
	C460.059418,824.180786 463.493988,820.926025 462.369537,818.431274 
	C461.244781,815.935913 459.922852,812.358337 457.882202,811.681030 
	C453.041718,810.074524 453.497253,806.489441 453.249878,802.951294 
	C453.794189,802.580200 454.091858,802.260132 454.370483,801.924316 
	C454.375671,801.917969 454.155029,801.724304 454.039795,801.618042 
	C453.692810,802.078003 453.345795,802.537964 452.617920,802.996094 
	C447.658569,803.141174 446.359497,799.386719 444.421051,796.407349 
	C441.929474,792.577759 439.583740,788.642761 436.880005,784.970459 
	C436.342560,784.240479 434.473114,784.491089 433.217865,784.289551 
z"/>
<path fill="#22c55e" opacity="1.000000" stroke="none" 
	d="
M312.366699,411.416321 
	C320.373016,407.285095 328.050781,403.330231 336.155945,399.155212 
	C334.677124,397.496399 333.275482,396.199432 332.202545,394.671570 
	C328.179047,388.942261 328.052338,381.382355 331.758789,375.882629 
	C335.526276,370.292236 344.296600,366.907135 351.233704,368.437927 
	C352.852478,368.795135 354.420563,369.790955 356.005035,369.775604 
	C357.475647,369.761322 359.502747,369.221405 360.308685,368.166901 
	C364.828949,362.252380 373.510101,360.181702 381.547241,363.438538 
	C389.183075,366.532776 394.277039,374.282196 393.077057,381.416992 
	C392.802643,383.048523 391.725922,385.604401 390.670593,385.793518 
	C389.143158,386.067200 387.042938,384.891479 385.639984,383.768280 
	C382.171844,380.991760 379.200317,377.531067 375.526642,375.106995 
	C374.100922,374.166229 371.322144,375.276123 369.159729,375.451843 
	C369.615875,377.063629 370.052124,378.681335 370.531830,380.286072 
	C372.087860,385.491730 373.944366,390.632263 375.068085,395.928772 
	C375.450836,397.732758 374.463593,400.254700 373.300354,401.871552 
	C370.775208,405.381134 368.091644,404.908569 366.583557,400.833923 
	C364.194855,394.379944 361.692841,388.042572 355.880829,383.768707 
	C354.678070,382.884277 353.457062,381.700623 352.091858,381.432739 
	C349.693512,380.962128 347.177277,381.092316 344.710388,380.970856 
	C344.732483,383.619385 343.881409,386.716644 344.962830,388.820709 
	C347.056488,392.894226 350.238251,396.408508 353.410736,400.760437 
	C350.178894,402.965393 347.048828,405.318787 343.716553,407.338409 
	C324.645691,418.896851 305.524109,430.371552 286.428345,441.888916 
	C284.576569,443.005829 282.742706,444.161774 280.970398,445.399628 
	C274.964691,449.594391 270.012482,448.988953 264.297638,442.848969 
	C278.962616,430.441803 294.701813,419.829041 312.366699,411.416321 
z"/>
<path fill="#22c55e" opacity="1.000000" stroke="none" 
	d="
M598.313721,721.003174 
	C598.200867,720.559692 598.088074,720.116150 598.351318,719.225708 
	C597.944153,713.075256 597.632935,707.256836 596.279236,701.692078 
	C593.472412,690.153503 589.999146,678.778625 587.039551,667.274841 
	C585.991577,663.201355 586.847900,658.142822 584.715820,654.948425 
	C580.531189,648.678833 580.659973,640.391907 574.786194,635.035400 
	C574.301941,634.593811 575.384521,632.434265 575.739075,631.072937 
	C576.267273,630.962769 576.795471,630.852539 577.323669,630.742371 
	C579.396484,633.754333 581.528748,636.727722 583.519531,639.792969 
	C584.687195,641.590820 585.539612,643.592834 586.698914,645.396973 
	C587.816528,647.136292 589.527588,648.578613 590.309570,650.433228 
	C592.407166,655.407715 594.322144,660.476013 595.992615,665.610229 
	C599.549011,676.541077 603.125671,687.474609 606.262329,698.529480 
	C608.243286,705.511597 609.930115,712.650269 610.886902,719.833496 
	C612.521179,732.102844 613.549194,744.455750 614.696960,756.786133 
	C615.572021,766.187012 616.711853,775.598877 616.876892,785.020935 
	C617.080505,796.640381 616.405457,808.275574 616.088928,819.903442 
	C615.989502,823.555420 617.963806,824.963074 621.356384,824.997620 
	C625.517578,825.039978 629.716736,824.796631 633.831848,825.267944 
	C646.328735,826.699341 658.780273,828.526917 671.277466,829.955750 
	C675.240356,830.408936 677.397156,832.294312 676.278015,835.977844 
	C675.677673,837.953735 673.113220,840.720886 671.395081,840.749756 
	C657.530029,840.982727 643.521667,842.102600 630.226868,836.398132 
	C625.774414,834.487671 621.149719,832.796631 616.440674,831.716370 
	C611.507507,830.584778 608.265808,827.850830 608.098999,822.960938 
	C607.663757,810.204712 607.521484,797.436707 606.950073,784.687378 
	C606.500549,774.658875 605.591614,764.650757 604.863525,754.635315 
	C604.815857,753.980164 604.483093,753.346558 604.428711,752.690857 
	C604.018250,747.743042 603.192627,742.775696 603.372253,737.846375 
	C603.602478,731.527893 600.826782,726.362244 598.313721,721.003174 
z"/>
<path fill="#22c55e" opacity="1.000000" stroke="none" 
	d="
M223.111038,466.447754 
	C224.293091,459.442627 227.557724,454.212128 233.117462,450.523987 
	C243.066681,443.923920 251.922424,444.946655 259.852142,453.865051 
	C269.421356,464.627350 276.336456,476.586304 274.274353,491.730286 
	C272.305054,506.192657 260.075348,512.811646 246.657562,506.973663 
	C231.982300,500.588562 222.246826,484.040680 223.111038,466.447754 
M251.953720,463.527649 
	C249.501877,461.021057 247.134415,458.185425 243.034073,459.471191 
	C239.180786,460.679535 237.798050,463.855927 237.302399,467.495361 
	C236.265137,475.111450 243.762604,488.902618 250.692505,492.266724 
	C257.161804,495.407227 260.865051,493.101715 261.129456,485.810364 
	C261.439087,477.272095 257.257690,470.546021 251.953720,463.527649 
z"/>
<path fill="#22c55e" opacity="1.000000" stroke="none" 
	d="
M369.998383,414.997559 
	C364.868347,414.819855 359.761261,414.679749 356.877655,420.201477 
	C356.588470,420.755127 356.184601,421.410370 355.663086,421.656860 
	C348.286621,425.143127 340.834290,428.472748 333.514771,432.072937 
	C331.727814,432.951813 330.393799,434.721100 328.773560,435.980652 
	C327.793793,436.742371 326.695892,437.371155 325.595947,437.955963 
	C321.329193,440.224182 317.083618,442.539886 312.740112,444.652740 
	C310.773590,445.609375 308.596130,446.132416 306.092255,446.768066 
	C326.134399,434.971680 346.577026,423.221222 367.085938,411.587646 
	C370.228302,409.805115 373.676483,408.561737 376.951508,407.083313 
	C380.415161,412.940857 379.843018,413.765137 365.189240,424.380798 
	C365.458801,424.758209 365.812988,425.501312 365.986237,425.461243 
	C374.429626,423.510406 382.900909,421.460938 387.536072,413.034607 
	C389.341675,409.752258 390.593353,406.438995 386.312592,403.503387 
	C382.141663,400.643066 381.763214,395.322723 384.874176,391.236053 
	C387.262726,388.098358 389.934692,388.405426 394.873901,391.613708 
	C396.158142,392.447845 398.687622,392.519409 400.084656,391.820648 
	C405.430725,389.146545 410.572998,386.057922 415.740479,383.037079 
	C418.178558,381.611816 420.425934,380.880951 421.893066,384.113922 
	C423.201691,386.997650 427.332092,389.978180 422.976074,393.127167 
	C417.625122,396.995422 411.752319,400.134674 406.227142,403.774323 
	C404.930328,404.628571 403.362762,406.137970 403.205170,407.495178 
	C400.923035,427.151550 382.214478,441.392334 362.737366,438.098480 
	C361.753479,437.932098 360.771423,437.754852 359.400665,437.788391 
	C359.012817,437.994141 359.038544,438.029297 359.076141,437.717896 
	C358.731049,437.254028 358.348358,437.101562 357.935028,436.935333 
	C357.904358,436.921570 357.850433,436.881378 357.850433,436.881378 
	C359.365326,436.125885 360.837250,434.847046 362.403595,434.718475 
	C366.257019,434.402191 370.153809,434.614960 375.347321,434.614960 
	C370.272552,432.310333 366.463196,430.580353 362.403290,428.736572 
	C361.064819,424.861603 361.919891,421.646881 366.225159,419.451141 
	C367.662537,418.718018 368.566010,416.938110 370.252014,415.318573 
	C372.456604,414.295319 374.122742,413.590149 375.788910,412.885010 
	C375.520874,412.371094 375.252869,411.857178 374.984833,411.343262 
	C372.069275,410.640900 370.672729,412.265961 369.998383,414.997559 
z"/>
<path fill="#22c55e" opacity="1.000000" stroke="none" 
	d="
M598.294250,721.414612 
	C600.826782,726.362244 603.602478,731.527893 603.372253,737.846375 
	C603.192627,742.775696 604.018250,747.743042 604.428711,752.690857 
	C604.483093,753.346558 604.815857,753.980164 604.863525,754.635315 
	C605.591614,764.650757 606.500549,774.658875 606.950073,784.687378 
	C607.521484,797.436707 607.663757,810.204712 608.098999,822.960938 
	C608.265808,827.850830 611.507507,830.584778 616.440674,831.716370 
	C621.149719,832.796631 625.774414,834.487671 630.226868,836.398132 
	C643.521667,842.102600 657.530029,840.982727 671.395081,840.749756 
	C673.113220,840.720886 675.677673,837.953735 676.278015,835.977844 
	C677.397156,832.294312 675.240356,830.408936 671.277466,829.955750 
	C658.780273,828.526917 646.328735,826.699341 633.831848,825.267944 
	C629.716736,824.796631 625.517578,825.039978 621.356384,824.997620 
	C617.963806,824.963074 615.989502,823.555420 616.088928,819.903442 
	C616.405457,808.275574 617.080505,796.640381 616.876892,785.020935 
	C616.711853,775.598877 615.572021,766.187012 614.696960,756.786133 
	C613.549194,744.455750 612.521179,732.102844 610.886902,719.833496 
	C609.930115,712.650269 608.243286,705.511597 606.262329,698.529480 
	C603.125671,687.474609 599.549011,676.541077 595.992615,665.610229 
	C594.322144,660.476013 592.407166,655.407715 590.309570,650.433228 
	C589.527588,648.578613 587.816528,647.136292 586.698914,645.396973 
	C585.539612,643.592834 584.687195,641.590820 583.519531,639.792969 
	C581.528748,636.727722 579.396484,633.754333 577.323669,630.742371 
	C576.795471,630.852539 576.267273,630.962769 575.739075,631.072937 
	C575.384521,632.434265 574.301941,634.593811 574.786194,635.035400 
	C580.659973,640.391907 580.531189,648.678833 584.715820,654.948425 
	C586.847900,658.142822 585.991577,663.201355 587.039551,667.274841 
	C589.999146,678.778625 593.472412,690.153503 596.279236,701.692078 
	C597.632935,707.256836 597.944153,713.075256 598.390930,718.880554 
	C592.702454,699.082031 587.575500,679.117065 581.878906,659.315979 
	C579.830139,652.194580 576.452148,645.450256 573.598145,638.568176 
	C572.268311,635.361328 570.741577,632.236084 569.104004,628.633545 
	C566.786987,629.235229 564.266724,629.889709 561.369202,630.566345 
	C563.009277,626.273987 565.484985,625.454956 569.653381,627.458069 
	C572.052734,628.611023 574.759033,630.520508 576.768860,626.252869 
	C589.520630,638.990967 595.602661,655.390503 601.121399,672.005432 
	C612.713745,706.905457 617.199280,742.998047 618.363220,779.571533 
	C618.765442,792.208008 618.548035,804.868042 618.410400,817.515137 
	C618.374634,820.799500 619.167603,822.263306 622.759216,822.386780 
	C631.401123,822.684082 640.053467,823.150208 648.652161,824.031128 
	C653.067932,824.483582 657.351746,826.107727 661.744324,826.944214 
	C664.834717,827.532776 668.001221,827.776123 671.145813,828.013550 
	C676.448181,828.413879 679.904175,831.174683 679.848511,835.129517 
	C679.790955,839.216370 676.406860,842.750793 671.547180,842.848328 
	C651.640137,843.247742 632.020508,842.092529 613.464050,833.448486 
	C608.525146,831.147766 606.912048,828.770569 606.759949,823.244141 
	C605.825684,789.294128 604.119324,755.377808 598.294250,721.414612 
z"/>
<path fill="#ADDED8" opacity="1.000000" stroke="none" 
	d="
M693.151367,731.882812 
	C697.783630,739.018188 697.740112,746.034851 693.650330,752.882385 
	C690.353577,758.402161 685.105896,760.541382 678.763428,760.028442 
	C670.292969,759.343506 664.329590,751.709839 664.957336,742.395447 
	C665.617859,732.593567 671.875427,726.191895 680.535767,726.470276 
	C685.306824,726.623596 689.850647,727.342590 693.151367,731.882812 
z"/>
<path fill="#F0BE6D" opacity="1.000000" stroke="none" 
	d="
M373.279297,770.049988 
	C369.418488,780.273560 360.975098,784.607910 351.886841,781.373657 
	C343.379913,778.346313 339.162231,769.837585 341.955872,761.339172 
	C344.841309,752.561646 354.829590,747.251465 363.474121,749.899170 
	C371.210510,752.268677 374.930786,759.684753 373.279297,770.049988 
z"/>
<path fill="#EFBD6D" opacity="1.000000" stroke="none" 
	d="
M682.846008,255.119568 
	C681.393616,242.495422 688.352112,234.555771 699.860107,235.225403 
	C707.940430,235.695587 713.271423,240.332474 714.662659,248.100784 
	C716.006470,255.603638 712.142700,263.094604 705.343323,266.169250 
	C698.461975,269.280945 690.126648,267.296143 685.707275,261.266388 
	C684.468750,259.576660 683.831482,257.446289 682.846008,255.119568 
z"/>
<path fill="#ABDCD7" opacity="1.000000" stroke="none" 
	d="
M402.437073,190.371140 
	C402.112640,181.357468 405.819427,175.206940 412.568115,172.988113 
	C419.241516,170.794052 426.378204,173.763931 430.956573,180.640335 
	C435.382263,187.287415 435.261902,194.400330 430.627838,200.070724 
	C425.305054,206.583893 415.403839,206.956848 408.530945,200.312347 
	C405.909210,197.777756 404.504639,193.984161 402.437073,190.371140 
z"/>
<path fill="#22c55e" opacity="1.000000" stroke="none" 
	d="
M443.115784,349.045105 
	C441.467926,351.213348 439.599792,353.270111 438.299255,355.638580 
	C437.556824,356.990662 437.012482,359.231720 437.632843,360.415375 
	C440.175720,365.267578 442.887390,370.106079 446.198090,374.445160 
	C447.569855,376.243042 450.548187,376.914642 452.901123,377.827148 
	C454.313293,378.374817 455.928619,378.398682 457.452606,378.657990 
	C457.537933,379.158173 457.623260,379.658356 457.708557,380.158539 
	C450.512329,383.479034 443.316132,386.799561 435.956543,390.195435 
	C428.399536,378.704529 425.459869,364.658203 412.645416,355.993713 
	C416.411102,354.353210 419.612518,352.916656 422.847809,351.560883 
	C426.071716,350.209930 429.472107,349.206665 432.537384,347.568665 
	C436.565918,345.415863 439.868530,345.344147 442.857971,349.284973 
	C443.180450,349.085999 443.133362,349.064209 443.115784,349.045105 
z"/>
<path fill="#22c55e" opacity="1.000000" stroke="none" 
	d="
M416.633820,824.567810 
	C413.208679,827.009094 409.351532,829.351318 405.676025,831.950378 
	C404.508392,832.776062 402.814636,834.836792 403.110077,835.378052 
	C403.966766,836.947693 405.052582,838.448914 407.796387,838.119812 
	C423.621155,836.221680 439.488586,834.679688 455.340759,833.009583 
	C455.999756,832.940247 456.843384,833.021912 457.276093,832.652588 
	C462.009888,828.612000 467.823242,827.662781 473.612213,826.303406 
	C474.762207,826.033386 476.389862,821.645813 475.676117,820.587585 
	C470.970367,813.610596 465.586578,807.096191 460.619904,800.288025 
	C456.966309,795.279724 453.599701,790.061401 450.136475,784.915588 
	C449.680420,784.238037 449.608276,783.171997 449.022949,782.731689 
	C443.093231,778.271179 440.473511,771.525818 437.561432,765.226501 
	C434.160004,757.868652 431.729980,750.044006 429.133026,742.336182 
	C425.495148,731.538940 425.980774,720.129822 427.411774,709.340698 
	C428.862091,698.405945 433.500885,687.874634 436.950134,677.233704 
	C438.381439,672.818115 440.027618,668.406433 442.187805,664.315979 
	C443.626648,661.591492 446.147156,659.438171 448.544006,657.012939 
	C443.255615,670.455627 436.370605,683.545837 432.222778,697.452454 
	C424.296234,724.028259 429.111816,749.356628 444.394135,772.363708 
	C452.583649,784.692810 461.860565,796.296814 470.544281,808.302063 
	C473.266907,812.066101 475.950226,815.916443 478.108490,820.013245 
	C480.007050,823.617126 478.153259,827.745422 474.370270,828.853394 
	C464.193390,831.834106 454.082153,835.285339 443.698364,837.240295 
	C434.265045,839.016174 424.505646,839.048706 414.894196,839.897400 
	C412.603180,840.099670 410.289886,840.898499 408.057526,840.684692 
	C405.656586,840.454834 402.310364,840.027344 401.278534,838.445435 
	C400.278229,836.911865 400.841553,832.538025 402.205261,831.619507 
	C406.519928,828.713379 411.530640,826.840637 416.633820,824.567810 
z"/>
<path fill="#22c55e" opacity="1.000000" stroke="none" 
	d="
M421.279358,480.822113 
	C420.266663,474.931519 425.110138,471.430603 427.790802,467.052551 
	C431.231293,461.433655 435.840118,456.539734 439.416321,450.992249 
	C446.705872,439.684570 456.770386,430.957397 466.045044,421.487732 
	C467.025421,420.486755 468.269928,419.744568 469.748413,418.608276 
	C471.388763,424.188110 471.052887,428.344360 468.798798,433.495453 
	C465.560486,440.895660 464.785767,449.375122 462.969727,457.396240 
	C460.820038,466.890961 458.495667,476.351624 456.615204,485.899567 
	C455.659851,490.750427 455.334778,495.749817 455.040405,500.700836 
	C454.558197,508.810211 453.680847,516.972473 454.145447,525.044800 
	C454.941284,538.872620 454.432892,552.942566 459.805481,566.194214 
	C462.012848,571.638794 463.758087,577.269470 465.860718,582.759094 
	C466.227264,583.716003 467.643219,584.266235 468.023926,585.223267 
	C468.840393,587.275818 469.297455,589.471375 469.763306,591.971313 
	C460.686005,579.643066 456.472321,565.147888 454.067932,550.107971 
	C449.424744,521.063904 452.164764,492.300140 458.598022,463.840942 
	C461.309875,451.844299 465.037720,440.077911 468.270599,428.197845 
	C468.769501,426.364502 469.089447,424.482452 468.865417,422.319611 
	C450.192902,439.537262 435.621307,459.878784 421.279358,480.822113 
z"/>
<path fill="#22c55e" opacity="1.000000" stroke="none" 
	d="
M473.995514,617.993835 
	C467.824249,618.662537 463.319061,621.959961 459.491669,626.681763 
	C456.889709,629.891724 453.406830,632.418152 450.984924,635.737000 
	C445.833984,642.795593 440.141266,649.434937 435.105865,656.576599 
	C434.889862,656.882935 434.177856,656.839478 433.336243,656.972778 
	C445.332184,636.504395 459.000244,617.447998 483.628784,610.619629 
	C478.928833,604.648743 474.343079,598.822876 469.674744,592.662231 
	C472.471497,595.067017 475.330353,597.828552 478.234131,600.541931 
	C485.710175,607.527649 491.684052,616.240845 502.594757,619.082275 
	C506.385681,620.069580 509.465057,623.789062 512.935303,626.602051 
	C505.933990,623.315369 498.757355,619.880005 491.855560,615.960632 
	C489.241302,614.476135 487.341278,614.017822 484.634369,615.610596 
	C474.584900,621.523987 467.811157,630.626099 460.977356,639.630005 
	C456.957001,644.927185 453.435120,650.602600 449.410767,656.330200 
	C451.956970,651.101501 454.241089,645.270142 457.743011,640.296143 
	C462.100372,634.107056 467.518982,628.671631 472.341675,622.797791 
	C473.223846,621.723328 473.448334,620.108826 474.080994,618.328979 
	C474.185516,617.914368 474.199341,617.674500 474.199341,617.674500 
	C474.199341,617.674500 473.995514,617.993835 473.995514,617.993835 
z"/>
<path fill="#22c55e" opacity="1.000000" stroke="none" 
	d="
M320.589478,451.346039 
	C321.418213,447.849060 323.948578,446.235840 327.445557,444.689331 
	C333.522400,442.001984 339.121338,438.187561 344.786682,434.632202 
	C348.583466,432.249512 350.452789,433.017853 350.972870,437.538696 
	C351.986877,446.352478 352.617554,455.238312 354.208221,463.947998 
	C355.268402,469.752960 357.974976,475.236511 359.484192,480.984802 
	C362.199799,491.328308 364.446411,501.794556 367.130920,512.146790 
	C368.690338,518.160339 370.696411,524.059387 372.555969,529.992920 
	C373.050964,531.572388 373.610870,533.161377 374.386261,534.615173 
	C375.271454,536.274780 376.818604,539.265442 377.404205,539.111633 
	C380.058807,538.414490 382.759003,537.165222 384.904724,535.443970 
	C387.445374,533.405884 389.434052,530.679688 392.049744,528.317505 
	C389.437256,532.539856 386.843658,537.083801 383.340332,540.761230 
	C378.223358,546.132507 373.087158,544.657471 371.227661,537.499329 
	C365.715485,516.280334 360.196136,495.059540 355.067780,473.746033 
	C352.088806,461.365631 349.855530,448.805817 347.247772,436.137604 
	C338.659729,441.078339 329.802429,446.174011 320.589478,451.346039 
z"/>
<path fill="#A8D8D2" opacity="1.000000" stroke="none" 
	d="
M296.586914,569.717041 
	C287.134552,571.474792 280.241516,565.472900 282.069153,557.372742 
	C283.108704,552.765198 285.978333,549.713989 290.837494,548.998047 
	C295.348999,548.333313 299.105743,549.696167 301.550171,553.687866 
	C303.933197,557.579224 303.404236,563.355042 300.386749,566.759338 
	C299.416595,567.853882 298.091705,568.633972 296.586914,569.717041 
z"/>
<path fill="#22c55e" opacity="1.000000" stroke="none" 
	d="
M410.554077,471.614899 
	C409.725861,474.183014 408.831390,477.074585 407.443726,479.706085 
	C403.710419,486.785858 399.790466,493.767914 395.896301,500.761841 
	C393.887299,504.369965 390.864929,507.714111 389.991364,511.561432 
	C389.261749,514.774597 388.215332,516.758484 385.698975,518.735107 
	C381.318726,522.175903 377.207428,521.202942 376.220795,515.794312 
	C374.327820,505.417206 372.830505,494.967407 370.898315,484.598206 
	C370.177765,480.731384 368.663483,477.016052 367.576141,473.213074 
	C366.002472,467.709106 364.760162,462.092255 362.860229,456.705658 
	C361.394165,452.549103 359.111359,448.683350 357.236420,444.667389 
	C356.082672,442.196228 354.353088,439.675842 357.595245,437.063141 
	C357.850433,436.881378 357.904358,436.921570 357.865356,437.321320 
	C358.230408,437.823792 358.634460,437.926544 359.038544,438.029297 
	C359.038544,438.029297 359.012817,437.994141 359.005615,437.973846 
	C359.010986,439.132019 358.669708,440.456848 359.087860,441.467499 
	C369.253540,466.036407 374.976044,491.814514 380.003784,517.786377 
	C380.122314,518.398865 380.365723,518.987122 381.066406,521.255798 
	C391.249298,504.014008 400.756104,487.916901 410.554077,471.614899 
z"/>
<path fill="#EFBE70" opacity="1.000000" stroke="none" 
	d="
M370.066162,228.158875 
	C369.611938,229.070648 369.337952,229.688828 368.938202,230.210693 
	C364.829529,235.574402 360.125183,236.920563 355.700714,234.025024 
	C351.494781,231.272491 350.287964,226.267609 352.760345,221.830704 
	C355.130615,217.577026 362.176636,215.263824 366.771393,217.230927 
	C370.519928,218.835754 371.637543,222.299637 370.066162,228.158875 
z"/>
<path fill="#A8D8D2" opacity="1.000000" stroke="none" 
	d="
M703.759888,792.322876 
	C698.963684,785.871643 700.103333,779.369751 706.303955,776.915161 
	C710.178833,775.381287 714.252441,774.968689 717.258850,778.545898 
	C720.318176,782.186096 719.780884,786.338867 717.331543,790.065796 
	C714.826294,793.877869 711.217041,795.558594 706.619019,793.991211 
	C705.700562,793.678040 704.887085,793.056946 703.759888,792.322876 
z"/>
<path fill="#A8D8D2" opacity="1.000000" stroke="none" 
	d="
M729.750000,309.422729 
	C729.892395,301.542725 733.867126,296.792908 739.541260,297.283600 
	C743.862793,297.657379 747.373047,300.914307 747.630188,304.788849 
	C747.959534,309.751984 744.218628,315.306366 739.861816,316.323029 
	C735.208801,317.408813 731.927246,315.278717 729.750000,309.422729 
z"/>
<path fill="#E9BC6F" opacity="1.000000" stroke="none" 
	d="
M299.835144,718.200195 
	C304.338501,721.674805 305.768494,726.562012 303.890656,731.071106 
	C302.318451,734.846191 297.845123,737.533813 294.273132,736.605835 
	C289.775360,735.437500 287.774261,732.298645 287.872375,727.729492 
	C287.975616,722.920593 291.249908,718.639221 295.545349,717.935730 
	C296.824036,717.726318 298.182556,718.004395 299.835144,718.200195 
z"/>
<path fill="#22c55e" opacity="1.000000" stroke="none" 
	d="
M424.585205,673.039246 
	C424.081329,675.930115 423.293518,679.040649 422.538544,682.159180 
	C420.714447,689.693787 418.726959,697.194702 417.133606,704.778137 
	C414.880585,715.501099 414.587708,726.481262 416.260986,737.177979 
	C417.540344,745.356567 420.563385,753.364685 423.614014,761.133179 
	C426.291840,767.952393 430.104889,774.323853 433.346252,780.927612 
	C433.576569,781.396729 433.229004,782.149414 432.897522,782.987427 
	C413.291504,753.864685 408.148254,722.385986 418.580719,688.642090 
	C420.194183,683.423340 422.389801,678.384583 424.585205,673.039246 
z"/>
<path fill="#22c55e" opacity="1.000000" stroke="none" 
	d="
M433.337830,784.637085 
	C434.473114,784.491089 436.342560,784.240479 436.880005,784.970459 
	C439.583740,788.642761 441.929474,792.577759 444.421051,796.407349 
	C446.359497,799.386719 447.658569,803.141174 452.618530,802.997192 
	C453.000000,803.000000 453.001221,803.000671 453.001221,803.000671 
	C453.497253,806.489441 453.041718,810.074524 457.882202,811.681030 
	C459.922852,812.358337 461.244781,815.935913 462.369537,818.431274 
	C463.493988,820.926025 460.059418,824.180786 456.953400,823.756897 
	C445.924225,822.251587 434.958344,822.334656 424.034698,824.718994 
	C422.651337,825.020996 421.113800,824.616333 419.342773,824.307617 
	C430.516937,822.800232 441.992371,821.489868 453.478424,820.279846 
	C455.572205,820.059265 457.709167,820.248352 460.002441,820.248352 
	C450.983032,808.266357 442.220398,796.625488 433.337830,784.637085 
z"/>
<path fill="#22c55e" opacity="1.000000" stroke="none" 
	d="
M305.438171,446.675964 
	C301.724213,449.795105 297.723999,453.081116 293.557434,456.140533 
	C291.335541,457.772064 288.620789,458.765533 286.519379,460.516205 
	C285.136810,461.668091 284.123138,463.572540 283.673309,465.326935 
	C283.553589,465.793854 286.492920,467.907257 287.366516,467.567017 
	C288.716766,467.041046 289.497864,465.053925 290.727173,463.409821 
	C294.684692,466.755188 296.462769,462.321716 299.443420,460.359314 
	C303.740265,457.530518 308.543060,455.444305 313.219391,453.230042 
	C315.197205,452.293488 317.402435,451.837189 319.925293,451.255005 
	C309.047882,457.653748 297.788116,464.032043 286.386810,470.146454 
	C285.337067,470.709412 282.483521,470.061737 282.014099,469.165863 
	C280.346985,465.984039 279.495270,462.344482 283.245056,459.829498 
	C287.527344,456.957367 291.976868,454.330383 296.399750,451.673553 
	C299.251221,449.960602 302.185547,448.385498 305.438171,446.675964 
z"/>
<path fill="#22c55e" opacity="1.000000" stroke="none" 
	d="
M456.623871,417.011505 
	C456.266235,418.660858 456.000336,420.776520 454.834015,422.096741 
	C450.066284,427.493805 445.012390,432.637512 440.084930,437.894226 
	C434.392670,443.966949 428.554474,449.915009 423.112671,456.205292 
	C420.328674,459.423401 418.368530,463.341095 415.841797,466.800781 
	C414.716736,468.341248 413.112213,469.531555 411.383118,470.940491 
	C423.162994,450.547333 438.439758,432.744110 456.623871,417.011505 
z"/>
<path fill="#E5B56E" opacity="1.000000" stroke="none" 
	d="
M636.223633,185.785294 
	C633.212280,181.880356 633.482361,177.977112 636.753845,175.357361 
	C638.677551,173.816895 642.735596,172.872269 644.619263,173.895416 
	C646.784973,175.071732 648.750061,178.702652 648.783447,181.293442 
	C648.857056,187.010620 642.375977,189.287277 636.223633,185.785294 
z"/>
<path fill="#22c55e" opacity="1.000000" stroke="none" 
	d="
M399.572876,375.449463 
	C397.440643,373.877136 395.633942,372.136169 392.554871,369.169189 
	C399.773285,366.125763 405.509003,363.426178 411.483215,361.445923 
	C412.568695,361.086090 414.629486,363.668762 417.239380,365.652679 
	C410.786743,369.235352 405.342560,372.258118 399.572876,375.449463 
z"/>
<path fill="#D5AF7C" opacity="1.000000" stroke="none" 
	d="
M778.389893,604.577881 
	C782.687988,598.897705 786.472412,597.763367 791.275452,600.442993 
	C796.249023,603.217651 798.685486,609.406921 796.828003,614.547729 
	C795.202454,619.046570 791.017639,621.126282 785.946350,619.955444 
	C780.853821,618.779724 776.751160,613.611633 777.179871,608.734009 
	C777.293640,607.438904 777.846130,606.182373 778.389893,604.577881 
M783.601562,616.093872 
	C786.185974,617.894348 788.811829,619.033997 791.742432,616.757935 
	C794.687012,614.471008 795.792114,611.768005 794.269043,608.091980 
	C792.676331,604.247986 789.908691,600.965088 785.959778,601.697998 
	C783.554260,602.144409 781.372803,605.680420 779.797729,608.260376 
	C777.640930,611.793335 781.209595,613.458740 783.601562,616.093872 
z"/>
<path fill="#D5AF7C" opacity="1.000000" stroke="none" 
	d="
M458.415100,146.375763 
	C462.055634,140.979568 465.916199,139.728363 470.731415,142.102081 
	C475.286102,144.347366 477.607941,149.522171 476.143341,154.164124 
	C474.877014,158.177719 470.315063,160.775970 465.840729,160.032013 
	C460.954041,159.219482 457.637573,154.727448 457.848572,149.142181 
	C457.879364,148.327011 458.116364,147.519638 458.415100,146.375763 
M460.462494,146.357391 
	C460.486359,148.636581 460.064941,151.033768 460.630859,153.169296 
	C461.669342,157.087814 466.189667,158.724045 470.335968,157.091553 
	C474.089752,155.613586 475.571747,151.897339 473.907440,148.135696 
	C471.507446,142.711166 465.477478,141.569351 460.462494,146.357391 
z"/>
<path fill="#22c55e" opacity="1.000000" stroke="none" 
	d="
M392.644714,528.164917 
	C394.281830,523.613525 395.770477,518.648071 398.171204,514.171814 
	C402.409973,506.268433 409.779175,500.179474 411.603912,490.777802 
	C411.810608,489.712799 414.297058,489.090210 416.117126,488.403564 
	C408.640961,501.686798 400.773987,514.828918 392.644714,528.164917 
z"/>
<path fill="#22c55e" opacity="1.000000" stroke="none" 
	d="
M514.605469,627.444946 
	C518.904480,627.773254 523.450806,628.651184 528.034607,628.946777 
	C538.106506,629.596252 548.197449,629.951111 558.616821,630.659729 
	C543.947327,634.177185 529.271118,632.868530 514.605469,627.444946 
z"/>
<path fill="#22c55e" opacity="1.000000" stroke="none" 
	d="
M480.694275,401.192108 
	C480.087250,402.866425 479.578949,405.326233 478.113037,406.226257 
	C472.096313,409.920074 465.794800,413.151550 459.575439,416.511200 
	C459.018982,416.811798 458.299316,416.810272 457.283386,416.946045 
	C464.725067,411.715454 472.538849,406.487915 480.694275,401.192108 
z"/>
<path fill="#22c55e" opacity="1.000000" stroke="none" 
	d="
M481.170044,419.694458 
	C479.261719,414.779480 482.212616,410.789246 484.805450,406.952850 
	C486.839661,403.943024 486.954071,402.022705 483.228516,400.265594 
	C485.132629,399.897186 487.253937,399.771667 490.833191,399.559845 
	C487.238617,407.084076 484.297150,413.241180 481.170044,419.694458 
z"/>
<path fill="#22c55e" opacity="1.000000" stroke="none" 
	d="
M432.713318,657.171936 
	C432.921265,663.386780 429.139008,668.006958 425.095703,672.791260 
	C427.328613,667.740234 429.885803,662.555664 432.713318,657.171936 
z"/>
<path fill="#22c55e" opacity="1.000000" stroke="none" 
	d="
M416.751251,488.191376 
	C415.671112,484.865173 417.164032,482.559418 420.664124,481.064453 
	C419.675995,483.335480 418.337280,485.664124 416.751251,488.191376 
z"/>
<path fill="#01020100" opacity="1.000000" stroke="none" 
	d="
M454.144745,307.524231 
	C451.497894,265.057892 467.242279,231.930618 503.549652,210.308441 
	C535.549500,191.251526 569.502319,190.569885 601.533386,209.282700 
	C633.651184,228.046158 649.828247,257.923737 647.710999,295.352356 
	C645.591675,332.817780 627.259949,361.762909 593.939392,379.329956 
	C561.270752,396.553284 527.944946,395.803467 496.581482,375.594604 
	C472.239014,359.909607 458.006561,336.985962 454.144745,307.524231 
M489.043213,243.541214 
	C487.567474,245.343491 486.009369,247.085083 484.629089,248.957718 
	C474.491333,262.711456 468.120728,277.842926 468.697174,295.219147 
	C468.937103,302.451385 474.104340,307.572906 480.427856,307.912842 
	C486.442688,308.236145 490.558319,304.307281 492.048004,296.700653 
	C495.772736,277.681396 504.777344,261.861816 520.207092,249.876099 
	C523.804565,247.081635 527.260437,245.111694 532.359253,245.572693 
	C538.966858,246.170120 544.005554,242.202789 547.884521,237.052475 
	C554.193970,228.675262 549.159180,215.977341 538.656982,215.045853 
	C533.789978,214.614182 528.290833,215.706070 523.797852,217.715851 
	C510.612183,223.614090 499.072968,232.044006 489.043213,243.541214 
M602.868958,241.666580 
	C605.875061,246.048630 609.179749,250.258591 611.825378,254.848419 
	C617.408508,264.534332 619.876770,275.205292 620.928040,286.262054 
	C621.424622,291.484741 625.276855,292.943817 629.675110,293.520355 
	C633.909424,294.075409 635.880676,291.316284 636.608948,287.852509 
	C637.387390,284.150177 638.073914,280.250671 637.759949,276.524963 
	C635.535828,250.133469 621.621948,230.652252 601.060913,215.118652 
	C596.292908,211.516479 591.751770,212.225677 587.131531,214.860092 
	C580.451660,218.668869 580.429810,224.428558 586.673218,228.918869 
	C592.057434,232.791260 597.166138,237.046600 602.868958,241.666580 
z"/>
<path fill="#02060300" opacity="1.000000" stroke="none" 
	d="
M714.848999,623.103821 
	C715.656433,621.400574 716.222412,620.001160 717.017822,618.747314 
	C719.953064,614.120056 721.815063,613.791443 726.210693,616.991211 
	C735.952332,624.082520 741.757629,633.273438 741.224182,645.695557 
	C740.952515,652.021973 737.522827,656.722229 732.411011,658.302490 
	C727.155579,659.927185 721.213074,657.915955 717.632935,652.620544 
	C711.476562,643.514771 711.529114,633.608459 714.848999,623.103821 
z"/>
<path fill="#00000000" opacity="1.000000" stroke="none" 
	d="
M752.562927,632.789429 
	C752.305176,632.777832 752.249451,632.580872 752.193726,632.383850 
	C752.384155,632.457275 752.574585,632.530640 752.562927,632.789429 
z"/>
<path fill="#22c55e" opacity="1.000000" stroke="none" 
	d="
M452.999390,802.998901 
	C453.345795,802.537964 453.692810,802.078003 454.039795,801.618042 
	C454.155029,801.724304 454.375671,801.917969 454.370483,801.924316 
	C454.091858,802.260132 453.794189,802.580200 453.249878,802.951294 
	C453.001221,803.000671 453.000000,803.000000 452.999390,802.998901 
z"/>
<path fill="#03090400" opacity="1.000000" stroke="none" 
	d="
M252.194946,463.797852 
	C257.257690,470.546021 261.439087,477.272095 261.129456,485.810364 
	C260.865051,493.101715 257.161804,495.407227 250.692505,492.266724 
	C243.762604,488.902618 236.265137,475.111450 237.302399,467.495361 
	C237.798050,463.855927 239.180786,460.679535 243.034073,459.471191 
	C247.134415,458.185425 249.501877,461.021057 252.194946,463.797852 
z"/>
<path fill="#22c55e" opacity="1.000000" stroke="none" 
	d="
M369.999207,414.998779 
	C370.672729,412.265961 372.069275,410.640900 374.984833,411.343262 
	C375.252869,411.857178 375.520874,412.371094 375.788910,412.885010 
	C374.122742,413.590149 372.456604,414.295319 370.396454,415.001465 
	C370.002441,415.002441 370.000000,415.000000 369.999207,414.998779 
z"/>
<path fill="#00000000" opacity="1.000000" stroke="none" 
	d="
M359.076141,437.717896 
	C358.634460,437.926544 358.230408,437.823792 357.895996,437.335083 
	C358.348358,437.101562 358.731049,437.254028 359.076141,437.717896 
z"/>
<path fill="#22c55e" opacity="1.000000" stroke="none" 
	d="
M473.997742,617.996948 
	C473.995514,617.993835 474.199341,617.674500 474.199341,617.674500 
	C474.199341,617.674500 474.185516,617.914368 474.095825,617.959473 
	C474.006104,618.004639 474.000000,618.000000 473.997742,617.996948 
z"/>
<path fill="#FBC170" opacity="1.000000" stroke="none" 
	d="
M783.319275,615.848633 
	C781.209595,613.458740 777.640930,611.793335 779.797729,608.260376 
	C781.372803,605.680420 783.554260,602.144409 785.959778,601.697998 
	C789.908691,600.965088 792.676331,604.247986 794.269043,608.091980 
	C795.792114,611.768005 794.687012,614.471008 791.742432,616.757935 
	C788.811829,619.033997 786.185974,617.894348 783.319275,615.848633 
z"/>
<path fill="#FBC170" opacity="1.000000" stroke="none" 
	d="
M460.680634,146.014893 
	C465.477478,141.569351 471.507446,142.711166 473.907440,148.135696 
	C475.571747,151.897339 474.089752,155.613586 470.335968,157.091553 
	C466.189667,158.724045 461.669342,157.087814 460.630859,153.169296 
	C460.064941,151.033768 460.486359,148.636581 460.680634,146.014893 
z"/>
<path fill="#ABDBD4" opacity="1.000000" stroke="none" 
	d="
M489.285461,243.282166 
	C499.072968,232.044006 510.612183,223.614090 523.797852,217.715851 
	C528.290833,215.706070 533.789978,214.614182 538.656982,215.045853 
	C549.159180,215.977341 554.193970,228.675262 547.884521,237.052475 
	C544.005554,242.202789 538.966858,246.170120 532.359253,245.572693 
	C527.260437,245.111694 523.804565,247.081635 520.207092,249.876099 
	C504.777344,261.861816 495.772736,277.681396 492.048004,296.700653 
	C490.558319,304.307281 486.442688,308.236145 480.427856,307.912842 
	C474.104340,307.572906 468.937103,302.451385 468.697174,295.219147 
	C468.120728,277.842926 474.491333,262.711456 484.629089,248.957718 
	C486.009369,247.085083 487.567474,245.343491 489.285461,243.282166 
z"/>
<path fill="#EFBE70" opacity="1.000000" stroke="none" 
	d="
M602.632812,241.399628 
	C597.166138,237.046600 592.057434,232.791260 586.673218,228.918869 
	C580.429810,224.428558 580.451660,218.668869 587.131531,214.860092 
	C591.751770,212.225677 596.292908,211.516479 601.060913,215.118652 
	C621.621948,230.652252 635.535828,250.133469 637.759949,276.524963 
	C638.073914,280.250671 637.387390,284.150177 636.608948,287.852509 
	C635.880676,291.316284 633.909424,294.075409 629.675110,293.520355 
	C625.276855,292.943817 621.424622,291.484741 620.928040,286.262054 
	C619.876770,275.205292 617.408508,264.534332 611.825378,254.848419 
	C609.179749,250.258591 605.875061,246.048630 602.632812,241.399628 
z"/>
</svg>