<?xml version="1.0" encoding="UTF-8" standalone="no"?>
<!-- Created with Inkscape (http://www.inkscape.org/) -->

<svg
   version="1.1"
   id="svg2"
   width="613.62665"
   height="192"
   viewBox="0 0 613.62665 192"
   sodipodi:docname="york-logo.eps"
   xmlns:inkscape="http://www.inkscape.org/namespaces/inkscape"
   xmlns:sodipodi="http://sodipodi.sourceforge.net/DTD/sodipodi-0.dtd"
   xmlns="http://www.w3.org/2000/svg"
   xmlns:svg="http://www.w3.org/2000/svg">
  <defs
     id="defs6" />
  <sodipodi:namedview
     id="namedview4"
     pagecolor="#ffffff"
     bordercolor="#000000"
     borderopacity="0.25"
     inkscape:showpageshadow="2"
     inkscape:pageopacity="0.0"
     inkscape:pagecheckerboard="0"
     inkscape:deskcolor="#d1d1d1" />
  <g
     id="g8"
     inkscape:groupmode="layer"
     inkscape:label="ink_ext_XXXXXX"
     transform="matrix(1.3333333,0,0,-1.3333333,0,192)">
    <g
       id="g10"
       transform="scale(0.1)">
      <path
         d="m 177.656,387.621 c 0,-54.121 -32.539,-67.672 -59.617,-67.672 -27.0507,0 -59.6171,13.551 -59.6171,67.672 V 486.66 H 79.5234 V 382.102 c 0,-22.012 9.6172,-45.172 38.5156,-45.172 28.895,0 38.539,23.16 38.539,45.172 V 486.66 h 21.078 v -99.039"
         style="fill:#ffffff;fill-opacity:1;fill-rule:nonzero;stroke:none"
         id="path12" />
      <path
         d="m 403.773,486.66 h 27.989 l 65.59,-114 c 3.441,-5.922 8.929,-16.961 11.007,-22.449 h 1.137 c -0.484,5.488 -1.137,13.289 -1.137,20.418 V 486.66 h 21.079 V 323.398 h -28.219 l -65.36,115.332 c -3.414,5.977 -8.933,16.985 -10.984,22.5 h -1.137 c 0.461,-5.515 1.137,-13.308 1.137,-20.417 V 323.398 H 403.773 V 486.66"
         style="fill:#ffffff;fill-opacity:1;fill-rule:nonzero;stroke:none"
         id="path14" />
      <path
         d="M 776.883,323.398 H 755.809 V 486.66 h 21.074 V 323.398"
         style="fill:#ffffff;fill-opacity:1;fill-rule:nonzero;stroke:none"
         id="path16" />
      <path
         d="m 1049.31,363.5 c 2.3,-6.629 3.93,-13.262 5.52,-19.91 h 1.14 c 1.62,6.648 3.24,13.281 5.49,19.91 l 40.84,123.188 h 21.79 l -55.75,-163.317 h -27.28 l -54.322,163.317 h 23.152 L 1049.31,363.5"
         style="fill:#ffffff;fill-opacity:1;fill-rule:nonzero;stroke:none"
         id="path18" />
      <path
         d="m 1333.68,486.66 h 98.13 v -16.953 h -77.05 v -53.246 h 73.18 v -16.949 h -73.18 V 340.34 h 79.38 V 323.398 H 1333.68 V 486.66"
         style="fill:#ffffff;fill-opacity:1;fill-rule:nonzero;stroke:none"
         id="path20" />
      <path
         d="m 1652.44,486.66 h 56.18 c 27.98,0 50,-13.738 50,-43.808 0,-31.391 -21.56,-38.961 -29.81,-41.723 l 38.99,-77.731 h -25.25 l -33.7,73.84 h -35.33 v -73.84 h -21.08 z m 21.08,-72.449 h 33.28 c 23.83,0 30.72,14.418 30.72,27.051 0,27.301 -23.62,28.445 -33.06,28.445 h -30.94 v -55.496"
         style="fill:#ffffff;fill-opacity:1;fill-rule:nonzero;stroke:none"
         id="path22" />
      <path
         d="m 1990.92,362.129 c 2.97,-11.457 12.14,-25.199 33.92,-25.199 20.66,0 31.69,14.679 31.69,28.441 0,17.641 -11.27,23.129 -17.23,25.891 l -39.43,18.379 c -15.36,7.109 -24.29,18.8 -24.29,35.742 0,31.851 27.7,44.746 51.08,44.746 23.18,0 42.22,-8.051 50.04,-29.836 l -20.66,-6.855 c -3.89,15.324 -17.66,19.707 -29.38,19.707 -20.17,0 -28.63,-11.465 -28.63,-26.399 0,-16.035 11,-21.074 21.55,-25.656 l 29.35,-12.82 c 10.1,-4.379 30.07,-14.231 30.07,-42.442 0,-15.359 -9.42,-45.906 -55.97,-45.906 -35.79,0 -49.1,22.5 -52.51,34.648 l 20.4,7.559"
         style="fill:#ffffff;fill-opacity:1;fill-rule:nonzero;stroke:none"
         id="path24" />
      <path
         d="m 2319.73,323.398 h -21.07 V 486.66 h 21.07 V 323.398"
         style="fill:#ffffff;fill-opacity:1;fill-rule:nonzero;stroke:none"
         id="path26" />
      <path
         d="m 2577.28,468.34 h -47.47 v 18.32 h 116.06 v -18.32 h -47.44 V 323.371 h -21.15 V 468.34"
         style="fill:#ffffff;fill-opacity:1;fill-rule:nonzero;stroke:none"
         id="path28" />
      <path
         d="m 2855.68,486.66 h 98.17 v -16.953 h -77.08 v -53.246 h 73.18 v -16.949 h -73.18 V 340.34 h 79.34 v -16.942 h -100.43 z m 52.32,43.113 h 24.76 l -32.57,-32.793 h -16.03 l 23.84,32.793"
         style="fill:#ffffff;fill-opacity:1;fill-rule:nonzero;stroke:none"
         id="path30" />
      <path
         d="M 177.938,67.6719 C 177.938,13.5391 145.371,0 118.324,0 91.2422,0 58.7031,13.5391 58.7031,67.6719 V 166.73 H 79.7852 V 62.1797 c 0,-22.0195 9.6367,-45.1992 38.5388,-45.1992 28.895,0 38.512,23.1797 38.512,45.1992 V 166.73 h 21.102 V 67.6719"
         style="fill:#ffffff;fill-opacity:1;fill-rule:nonzero;stroke:none"
         id="path32" />
      <path
         d="m 402.695,166.73 h 27.926 L 496.215,52.7617 c 3.473,-5.9414 8.984,-16.9804 11.035,-22.4414 h 1.137 c -0.453,5.461 -1.137,13.25 -1.137,20.3594 V 166.73 h 21.102 V 3.46875 H 500.141 L 434.777,118.781 c -3.441,5.969 -8.933,17 -11.039,22.5 h -1.136 c 0.484,-5.5 1.136,-13.312 1.136,-20.429 V 3.46875 H 402.695 V 166.73"
         style="fill:#ffffff;fill-opacity:1;fill-rule:nonzero;stroke:none"
         id="path34" />
      <path
         d="M 774.41,3.46875 H 753.34 V 166.73 h 21.07 V 3.46875"
         style="fill:#ffffff;fill-opacity:1;fill-rule:nonzero;stroke:none"
         id="path36" />
      <path
         d="m 1045.44,43.5703 c 2.34,-6.6484 3.93,-13.3086 5.52,-19.9414 h 1.14 c 1.65,6.6328 3.24,13.293 5.52,19.9414 l 40.81,123.1597 h 21.79 L 1064.5,3.46875 h -27.28 L 982.867,166.73 h 23.153 l 39.42,-123.1597"
         style="fill:#ffffff;fill-opacity:1;fill-rule:nonzero;stroke:none"
         id="path38" />
      <path
         d="m 1328.45,166.73 h 98.15 v -16.949 h -77.05 V 96.5586 h 73.16 V 79.5781 h -73.16 V 20.4219 h 79.36 V 3.46875 H 1328.45 V 166.73"
         style="fill:#ffffff;fill-opacity:1;fill-rule:nonzero;stroke:none"
         id="path40" />
      <path
         d="m 1645.81,166.73 h 56.21 c 27.99,0 49.97,-13.761 49.97,-43.769 0,-31.4297 -21.53,-39.0508 -29.78,-41.7305 l 38.97,-77.76175 h -25.22 l -33.72,73.83205 h -35.32 V 3.46875 h -21.11 z m 21.11,-72.4683 h 33.28 c 23.83,0 30.72,14.4493 30.72,27.0783 0,27.269 -23.64,28.441 -33.06,28.441 h -30.94 V 94.2617"
         style="fill:#ffffff;fill-opacity:1;fill-rule:nonzero;stroke:none"
         id="path42" />
      <path
         d="m 1982.92,42.2109 c 2.99,-11.4609 12.18,-25.2617 33.96,-25.2617 20.65,0 31.62,14.6797 31.62,28.4727 0,17.6679 -11.23,23.1484 -17.17,25.9179 l -39.45,18.3086 c -15.36,7.1719 -24.29,18.8316 -24.29,35.8126 0,31.848 27.73,44.719 51.11,44.719 23.18,0 42.21,-8.059 50,-29.821 l -20.64,-6.898 c -3.9,15.379 -17.64,19.758 -29.36,19.758 -20.2,0 -28.67,-11.52 -28.67,-26.391 0,-16.047 11.03,-21.078 21.56,-25.687 l 29.35,-12.8597 C 2051.06,83.9102 2071,74.0586 2071,45.9102 2071,30.4883 2061.59,0 2015.03,0 c -35.75,0 -49.06,22.4688 -52.53,34.6484 l 20.42,7.5625"
         style="fill:#ffffff;fill-opacity:1;fill-rule:nonzero;stroke:none"
         id="path44" />
      <path
         d="m 2310.41,3.46875 h -21.1 V 166.73 h 21.1 V 3.46875"
         style="fill:#ffffff;fill-opacity:1;fill-rule:nonzero;stroke:none"
         id="path46" />
      <path
         d="m 2566.56,148.391 h -47.47 v 18.339 h 116.02 v -18.339 h -47.45 V 3.46875 h -21.1 V 148.391"
         style="fill:#ffffff;fill-opacity:1;fill-rule:nonzero;stroke:none"
         id="path48" />
      <path
         d="m 2886,70.1992 -57.76,96.5308 h 25.2 l 36.69,-64 c 2.56,-4.3198 4.58,-9.1597 6.66,-13.7417 h 0.44 c 2.08,4.582 4.36,9.4219 6.9,13.7417 l 36.91,64 h 23.87 L 2907.08,70.1992 V 3.46875 H 2886 V 70.1992"
         style="fill:#ffffff;fill-opacity:1;fill-rule:nonzero;stroke:none"
         id="path50" />
      <path
         d="M 59.7305,258.09 V 247.789 L 2961.61,248.078 V 258.41 L 59.7305,258.09"
         style="fill:#ffffff;fill-opacity:1;fill-rule:nonzero;stroke:none"
         id="path52" />
      <path
         d="m 204.789,718.352 h 22.641 c 47.211,0 57.566,17.918 57.566,67.007 v 149.106 l -181.18,324.655 c -36.8043,66.06 -49.0894,74.53 -95.33944,74.53 H 0 v 28.3 c 40.5586,-0.92 80.207,-2.81 118.891,-2.81 39.648,0 80.261,1.89 119.855,2.81 v -28.3 H 221.77 c -19.829,0 -34.926,-6.58 -34.926,-30.17 0,-13.23 11.344,-38.71 20.785,-55.7 L 347.285,995.793 477.523,1244.96 c 7.54,14.16 25.489,50.01 25.489,66.99 0,16.04 -11.348,21.7 -36.832,21.7 h -17.926 v 28.3 c 38.687,-0.92 64.172,-2.81 93.469,-2.81 31.117,0 63.226,1.89 93.406,2.81 v -28.3 h -23.606 c -38.683,0 -47.16,-12.26 -76.425,-66.99 L 368.051,954.277 V 785.359 c 0,-55.691 20.762,-67.007 57.566,-67.007 H 444.5 V 690.02 c -39.648,0.964 -80.203,2.851 -119.852,2.851 -41.531,0 -84.933,-1.887 -119.859,-2.851 v 28.332"
         style="fill:#ffffff;fill-opacity:1;fill-rule:nonzero;stroke:none"
         id="path54" />
      <path
         d="m 1053.21,1374.24 c 187.81,0 352.01,-151.94 352.01,-348.26 0,-166.07 -128.37,-348.214 -354.83,-348.214 -203.874,0 -351.093,153.843 -351.093,340.684 0,210.46 167.98,355.79 353.913,355.79 m -2.82,-39.63 c -132.14,0 -256.726,-81.18 -256.726,-300.12 0,-152.881 100.066,-320.857 262.356,-320.857 174.61,0 254.82,128.332 254.82,301.977 0,151.96 -95.31,319 -260.45,319"
         style="fill:#ffffff;fill-opacity:1;fill-rule:nonzero;stroke:none"
         id="path56" />
      <path
         d="m 1553.38,718.352 h 17 c 43.41,0 62.29,16.043 62.29,77.363 v 460.545 c 0,61.36 -18.88,77.39 -62.29,77.39 h -17 v 28.3 c 33.04,-0.92 78.33,-2.81 120.82,-2.81 63.23,0 108.54,2.81 150.07,2.81 167.01,0 197.21,-131.15 197.21,-174.56 0,-123.65 -86.8,-161.38 -133.99,-176.47 l 126.43,-209.541 c 51.94,-84.902 67.02,-90.598 143.47,-95.316 V 686.27 c -17.93,0 -34.93,-0.965 -52.85,-0.965 -83.06,0 -121.74,10.41 -171.77,92.488 l -110.41,180.254 c -21.73,34.922 -33.99,36.808 -106.66,38.703 V 818.379 c 0,-89.617 16.07,-100.027 53.78,-100.027 h 27.39 V 690.02 c -41.52,0.964 -81.17,2.851 -122.67,2.851 -42.49,0 -87.78,-1.887 -120.82,-2.851 z m 162.32,320.868 c 16.07,-5.66 39.65,-6.6 64.19,-6.6 84.93,0 154.79,38.66 154.79,136.82 0,41.54 -28.33,156.67 -159.51,156.67 -22.64,0 -40.58,-1.87 -59.47,-3.76 v -283.13"
         style="fill:#ffffff;fill-opacity:1;fill-rule:nonzero;stroke:none"
         id="path58" />
      <path
         d="m 2304.61,718.352 h 16.98 c 43.4,0 62.31,16.043 62.31,77.363 v 460.545 c 0,61.36 -18.91,77.39 -62.31,77.39 h -16.98 v 28.3 c 33.04,-0.92 78.33,-2.81 120.77,-2.81 41.55,0 81.17,1.89 122.69,2.81 v -28.3 h -27.36 c -37.74,0 -53.78,-10.36 -53.78,-100.02 v -221.79 l 206.69,230.27 c 9.42,10.39 45.28,48.14 45.28,67.01 0,16.99 -13.19,24.53 -31.14,24.53 h -16.98 v 28.3 c 34.93,-0.92 74.58,-2.81 111.39,-2.81 37.71,0 74.51,1.89 112.25,2.81 v -28.3 h -16.98 c -46.22,0 -62.29,-8.47 -117.95,-66.99 l -182.15,-191.58 243.51,-284.99 c 52.81,-62.297 80.2,-71.738 118.88,-71.738 h 14.16 V 690.02 c -30.2,0.964 -61.37,2.851 -91.52,2.851 -30.2,0 -61.39,-1.887 -91.53,-2.851 -4.72,27.39 -7.57,41.535 -61.38,102.878 l -193.47,221.772 -49.06,-51.904 V 818.379 c 0,-89.617 16.04,-100.027 53.78,-100.027 h 27.36 V 690.02 c -41.52,0.964 -81.14,2.851 -122.69,2.851 -42.44,0 -87.73,-1.887 -120.77,-2.851 v 28.332"
         style="fill:#ffffff;fill-opacity:1;fill-rule:nonzero;stroke:none"
         id="path60" />
      <path
         d="m 4164.66,176.75 c -243.76,0 -454.81,150.68 -454.81,480.105 V 1440 H 3165.17 V 2.96094 H 4602.22 V 527.273 C 4559.04,318.328 4407.1,176.75 4164.66,176.75"
         style="fill:#ffffff;fill-opacity:1;fill-rule:nonzero;stroke:none"
         id="path62" />
      <path
         d="m 4164.66,470.957 c 130.77,0 170.93,114.883 170.93,227.313 V 1440 H 4001.16 V 698.27 c 0,-117.071 41.61,-227.313 163.5,-227.313"
         style="fill:#ffffff;fill-opacity:1;fill-rule:nonzero;stroke:none"
         id="path64" />
    </g>
  </g>
</svg>
